<svg width="266" height="286" xmlns="http://www.w3.org/2000/svg"><g><defs><style type="text/css"/></defs><g stroke="null" id="svg_5"><path fill="#90c695" stroke="null"  id="svg_4" d="m242.372063,146.833843c0,0 24.033449,-14.657863 7.844163,-57.694359c-16.188355,-43.020678 -72.669242,-36.370137 -72.669242,-36.370137s9.016694,-21.532364 34.36505,-22.578645c25.347428,-1.041009 45.416298,2.987781 45.416298,2.987781s-15.087169,-25.86204 -62.942516,-29.016081c-47.836114,-3.153735 -75.265557,24.555193 -82.679791,56.688403c0,0 -36.766256,-9.432349 -65.350237,1.887835c-28.607867,11.312433 -44.536589,42.909009 -44.761171,71.620479c0,0 40.967821,-44.286575 61.789219,-39.409098c0,0 -34.282538,21.430619 -37.287376,59.693866c-3.011665,38.257663 21.080718,63.534056 21.080718,63.534056s-4.80365,-32.163301 3.881446,-49.453464c8.698436,-17.300708 29.353263,-41.571764 29.353263,-41.571764s-7.396246,40.648942 1.621067,62.25761c5.438307,12.992437 14.922149,31.027373 47.481566,36.670095c0,0 -15.123153,-19.44104 -21.31771,-50.527347c-5.248467,-26.381923 17.228743,-54.391736 17.228743,-54.391736s51.944315,24.74162 71.551926,91.288271c11.751666,39.901376 10.55587,37.867439 7.32552,74.314504l51.322374,0c0.130282,-31.466606 -5.373474,-74.088065 -41.204497,-128.535634c-25.857072,-39.287502 -66.232113,-63.877127 -66.232113,-63.877127s14.188229,0.928097 32.434716,2.12482c18.24773,1.212856 57.712664,13.577771 61.748584,50.357674z"/></g></g></svg>